<svg width="43" height="28" viewBox="0 0 43 28" fill="none" xmlns="http://www.w3.org/2000/svg">
<path opacity="0.01" d="M0.800751 0.638901H42.7848V27.9409H0.800751V0.638901Z" fill="white"/>
<path d="M16.2567 5.3952H27.3318V23.1809H16.2567V5.3952Z" fill="#FF5F00"/>
<path fill-rule="evenodd" clip-rule="evenodd" d="M17.3976 14.2899C17.3948 10.8198 19.015 7.54117 21.7913 5.39867C17.0748 1.7542 10.3018 2.28506 6.23212 6.61812C2.16241 10.9512 2.16241 17.6318 6.23212 21.9648C10.3018 26.2979 17.0748 26.8287 21.7913 23.1843C19.0141 21.0411 17.3939 17.7611 17.3976 14.2899Z" fill="#EB001B"/>
<path fill-rule="evenodd" clip-rule="evenodd" d="M39.3274 21.0121V21.7512H39.25V21.0121H39.0848V20.8592H39.503V21.0121H39.3274ZM40.1393 20.8592V21.7512H40.0515V21.0758L39.9144 21.6556H39.8193L39.6822 21.0758V21.7512H39.5907V20.8592H39.7174L39.8652 21.4963L40.0126 20.8592H40.1393ZM40.4041 14.2899C40.4041 18.6204 37.8893 22.5706 33.9274 24.463C29.9659 26.3554 25.2533 25.8576 21.7909 23.1812C24.5659 21.0369 26.1863 17.7587 26.1863 14.2884C26.1863 10.8181 24.5659 7.53988 21.7909 5.39558C25.2533 2.71912 29.9659 2.22139 33.9274 4.11377C37.8893 6.00612 40.4041 9.95637 40.4041 14.2868V14.2899Z" fill="#F79E1B"/>
</svg>
